<?xml version="1.0" encoding="UTF-8" standalone="no"?>
<!-- Created with Inkscape (http://www.inkscape.org/) -->

<svg
   xmlns:dc="http://purl.org/dc/elements/1.1/"
   xmlns:cc="http://creativecommons.org/ns#"
   xmlns:rdf="http://www.w3.org/1999/02/22-rdf-syntax-ns#"
   xmlns:svg="http://www.w3.org/2000/svg"
   xmlns="http://www.w3.org/2000/svg"
   xmlns:sodipodi="http://sodipodi.sourceforge.net/DTD/sodipodi-0.dtd"
   xmlns:inkscape="http://www.inkscape.org/namespaces/inkscape"
   id="svg2"
   version="1.1"
   inkscape:version="0.91 r13725"
   xml:space="preserve"
   width="370.06146"
   height="77.955376"
   viewBox="0 0 370.06146 77.955376"
   sodipodi:docname="111.ai.svg"><metadata
     id="metadata8"><rdf:RDF><cc:Work
         rdf:about=""><dc:format>image/svg+xml</dc:format><dc:type
           rdf:resource="http://purl.org/dc/dcmitype/StillImage" /><dc:title></dc:title></cc:Work></rdf:RDF></metadata><defs
     id="defs6"><clipPath
       clipPathUnits="userSpaceOnUse"
       id="clipPath16"><path
         d="m 0,1080 1080,0 L 1080,0 0,0 0,1080 Z"
         id="path18"
         inkscape:connector-curvature="0" /></clipPath><linearGradient
       x1="0"
       y1="0"
       x2="1"
       y2="0"
       gradientUnits="userSpaceOnUse"
       gradientTransform="matrix(0,82.132416,82.132416,0,428.07077,736.25214)"
       spreadMethod="pad"
       id="linearGradient72"><stop
         style="stop-opacity:1;stop-color:#233283"
         offset="0"
         id="stop74" /><stop
         style="stop-opacity:1;stop-color:#0071f1"
         offset="0.24207468"
         id="stop76" /><stop
         style="stop-opacity:1;stop-color:#0071f1"
         offset="0.291608"
         id="stop78" /><stop
         style="stop-opacity:1;stop-color:#0071f1"
         offset="0.3985158"
         id="stop80" /><stop
         style="stop-opacity:1;stop-color:#00ceff"
         offset="1"
         id="stop82" /></linearGradient><linearGradient
       x1="0"
       y1="0"
       x2="1"
       y2="0"
       gradientUnits="userSpaceOnUse"
       gradientTransform="matrix(0,90.441986,90.441986,0,405.26266,714.22437)"
       spreadMethod="pad"
       id="linearGradient98"><stop
         style="stop-opacity:1;stop-color:#3658ba"
         offset="0"
         id="stop100" /><stop
         style="stop-opacity:1;stop-color:#0071f1"
         offset="0.24207468"
         id="stop102" /><stop
         style="stop-opacity:1;stop-color:#0071f1"
         offset="0.291608"
         id="stop104" /><stop
         style="stop-opacity:1;stop-color:#0071f1"
         offset="0.3985158"
         id="stop106" /><stop
         style="stop-opacity:1;stop-color:#00ceff"
         offset="1"
         id="stop108" /></linearGradient><linearGradient
       x1="0"
       y1="0"
       x2="1"
       y2="0"
       gradientUnits="userSpaceOnUse"
       gradientTransform="matrix(49.371864,0,0,-49.371864,391.97565,733.83582)"
       spreadMethod="pad"
       id="linearGradient124"><stop
         style="stop-opacity:1;stop-color:#00eaff"
         offset="0"
         id="stop126" /><stop
         style="stop-opacity:1;stop-color:#00a4fa"
         offset="0.55640606"
         id="stop128" /><stop
         style="stop-opacity:1;stop-color:#00a4fa"
         offset="0.696804"
         id="stop130" /><stop
         style="stop-opacity:1;stop-color:#00a4fa"
         offset="0.74830569"
         id="stop132" /><stop
         style="stop-opacity:1;stop-color:#4976fb"
         offset="1"
         id="stop134" /></linearGradient><clipPath
       clipPathUnits="userSpaceOnUse"
       id="clipPath142"><path
         d="m 0,1080 1080,0 L 1080,0 0,0 0,1080 Z"
         id="path144"
         inkscape:connector-curvature="0" /></clipPath><linearGradient
       x1="0"
       y1="0"
       x2="1"
       y2="0"
       gradientUnits="userSpaceOnUse"
       gradientTransform="matrix(0,48.804581,48.804581,0,428.07077,327.13712)"
       spreadMethod="pad"
       id="linearGradient198"><stop
         style="stop-opacity:1;stop-color:#474749"
         offset="0"
         id="stop200" /><stop
         style="stop-opacity:1;stop-color:#5c5c5f"
         offset="0.23460759"
         id="stop202" /><stop
         style="stop-opacity:1;stop-color:#5c5c5f"
         offset="0.282613"
         id="stop204" /><stop
         style="stop-opacity:1;stop-color:#5c5c5f"
         offset="0.38620351"
         id="stop206" /><stop
         style="stop-opacity:1;stop-color:#e7e7e7"
         offset="0.969024"
         id="stop208" /><stop
         style="stop-opacity:1;stop-color:#e7e7e7"
         offset="0.96932006"
         id="stop210" /><stop
         style="stop-opacity:1;stop-color:#e7e7e7"
         offset="1"
         id="stop212" /></linearGradient><linearGradient
       x1="0"
       y1="0"
       x2="1"
       y2="0"
       gradientUnits="userSpaceOnUse"
       gradientTransform="matrix(0,90.441986,90.441986,0,405.26266,305.10937)"
       spreadMethod="pad"
       id="linearGradient228"><stop
         style="stop-opacity:1;stop-color:#49494b"
         offset="0"
         id="stop230" /><stop
         style="stop-opacity:1;stop-color:#5c5c5f"
         offset="0.4177226"
         id="stop232" /><stop
         style="stop-opacity:1;stop-color:#5c5c5f"
         offset="0.503197"
         id="stop234" /><stop
         style="stop-opacity:1;stop-color:#5c5c5f"
         offset="0.5781726"
         id="stop236" /><stop
         style="stop-opacity:1;stop-color:#9c9da0"
         offset="1"
         id="stop238" /></linearGradient><linearGradient
       x1="0"
       y1="0"
       x2="1"
       y2="0"
       gradientUnits="userSpaceOnUse"
       gradientTransform="matrix(49.371864,0,0,-49.371864,391.97565,324.72079)"
       spreadMethod="pad"
       id="linearGradient254"><stop
         style="stop-opacity:1;stop-color:#aeb0b2"
         offset="0"
         id="stop256" /><stop
         style="stop-opacity:1;stop-color:#aeb0b2"
         offset="0.135304"
         id="stop258" /><stop
         style="stop-opacity:1;stop-color:#8f9194"
         offset="0.62407487"
         id="stop260" /><stop
         style="stop-opacity:1;stop-color:#8f9194"
         offset="0.710949"
         id="stop262" /><stop
         style="stop-opacity:1;stop-color:#8f9194"
         offset="0.76004798"
         id="stop264" /><stop
         style="stop-opacity:1;stop-color:#838588"
         offset="1"
         id="stop266" /></linearGradient><clipPath
       clipPathUnits="userSpaceOnUse"
       id="clipPath274"><path
         d="m 0,1080 1080,0 L 1080,0 0,0 0,1080 Z"
         id="path276"
         inkscape:connector-curvature="0" /></clipPath><clipPath
       clipPathUnits="userSpaceOnUse"
       id="clipPath3662"><rect
         style="fill:none;fill-opacity:0.20382164"
         id="rect3664"
         width="372.96613"
         height="107.54237"
         x="359.23727"
         y="-798.55933"
         transform="scale(1,-1)" /></clipPath><clipPath
       clipPathUnits="userSpaceOnUse"
       id="clipPath3666"><rect
         style="fill:none;fill-opacity:0.20382164"
         id="rect3668"
         width="372.96613"
         height="107.54237"
         x="359.23727"
         y="-798.55933"
         transform="scale(1,-1)" /></clipPath><clipPath
       clipPathUnits="userSpaceOnUse"
       id="clipPath3670"><rect
         style="fill:none;fill-opacity:0.20382164"
         id="rect3672"
         width="372.96613"
         height="107.54237"
         x="359.23727"
         y="-798.55933"
         transform="scale(1,-1)" /></clipPath><clipPath
       clipPathUnits="userSpaceOnUse"
       id="clipPath3674"><rect
         style="fill:none;fill-opacity:0.20382164"
         id="rect3676"
         width="372.96613"
         height="107.54237"
         x="359.23727"
         y="-798.55933"
         transform="scale(1,-1)" /></clipPath><clipPath
       clipPathUnits="userSpaceOnUse"
       id="clipPath3678"><rect
         style="fill:none;fill-opacity:0.20382164"
         id="rect3680"
         width="372.96613"
         height="107.54237"
         x="359.23727"
         y="-798.55933"
         transform="scale(1,-1)" /></clipPath><clipPath
       clipPathUnits="userSpaceOnUse"
       id="clipPath3682"><rect
         style="fill:none;fill-opacity:0.20382164"
         id="rect3684"
         width="372.96613"
         height="107.54237"
         x="359.23727"
         y="-798.55933"
         transform="scale(1,-1)" /></clipPath><clipPath
       clipPathUnits="userSpaceOnUse"
       id="clipPath3686"><rect
         style="fill:none;fill-opacity:0.20382164"
         id="rect3688"
         width="372.96613"
         height="107.54237"
         x="359.23727"
         y="-798.55933"
         transform="scale(1,-1)" /></clipPath><clipPath
       clipPathUnits="userSpaceOnUse"
       id="clipPath3690"><rect
         style="fill:none;fill-opacity:0.20382164"
         id="rect3692"
         width="372.96613"
         height="107.54237"
         x="359.23727"
         y="-798.55933"
         transform="scale(1,-1)" /></clipPath><clipPath
       clipPathUnits="userSpaceOnUse"
       id="clipPath3694"><rect
         style="fill:none;fill-opacity:0.20382164"
         id="rect3696"
         width="372.96613"
         height="107.54237"
         x="359.23727"
         y="-798.55933"
         transform="scale(1,-1)" /></clipPath></defs><sodipodi:namedview
     pagecolor="#ffffff"
     bordercolor="#666666"
     borderopacity="1"
     objecttolerance="10"
     gridtolerance="10"
     guidetolerance="10"
     inkscape:pageopacity="0"
     inkscape:pageshadow="2"
     inkscape:window-width="1440"
     inkscape:window-height="803"
     id="namedview4"
     showgrid="false"
     fit-margin-top="0"
     fit-margin-left="0"
     fit-margin-right="0"
     fit-margin-bottom="0"
     inkscape:zoom="2.797037"
     inkscape:cx="174.08571"
     inkscape:cy="15.668491"
     inkscape:window-x="0"
     inkscape:window-y="0"
     inkscape:window-maximized="1"
     inkscape:current-layer="g10" /><g
     id="g10"
     inkscape:groupmode="layer"
     inkscape:label="Stronghold_file"
     transform="matrix(1.25,0,0,-1.25,-489.96953,969.675)"><g
       id="g12"
       clip-path="url(#clipPath3694)"><g
         id="g14"
         clip-path="url(#clipPath16)"><g
           id="g20"
           transform="translate(489.5503,755.5142)"><path
             d="m 0,0 c -1.566,1.618 -4.438,3.08 -7.049,3.08 -3.76,0 -5.274,-2.819 -5.274,-4.96 0,-7.154 16.918,-4.491 16.918,-16.343 0,-5.849 -4.126,-10.862 -11.801,-10.862 -4.752,0 -8.981,1.932 -12.271,5.327 l 3.655,3.655 c 2.089,-2.142 5.117,-3.655 8.042,-3.655 4.281,0 6.161,3.08 6.161,5.43 0,6.945 -16.866,4.073 -16.866,16.291 0,5.64 3.655,10.444 10.757,10.444 4.333,0 8.511,-1.776 11.436,-4.752 L 0,0 Z"
             style="fill:#233283;fill-opacity:1;fill-rule:nonzero;stroke:none"
             id="path22"
             inkscape:connector-curvature="0" /></g><g
           id="g24"
           transform="translate(495.563,750.397)"><path
             d="m 0,0 2.767,0 0,5.222 5.953,0 0,-5.222 5.274,0 0,-4.49 -5.274,0 0,-10.862 c 0,-2.245 1.357,-3.759 3.499,-3.759 0.626,0 1.252,0.104 1.775,0.417 l 0,-4.751 c -0.888,-0.418 -1.932,-0.523 -2.872,-0.523 -5.17,0 -8.355,3.343 -8.355,8.616 l 0,10.862 L 0,-4.49 0,0 Z"
             style="fill:#233283;fill-opacity:1;fill-rule:nonzero;stroke:none"
             id="path26"
             inkscape:connector-curvature="0" /></g><g
           id="g28"
           transform="translate(525.3242,750.6582)"><path
             d="m 0,0 0,-5.013 c -0.575,0.208 -1.253,0.262 -1.88,0.262 -2.245,0 -4.125,-1.202 -5.273,-2.977 l 0,-16.031 -5.744,0 0,23.498 5.744,0 0,-2.402 c 1.618,1.723 3.55,2.767 5.691,2.767 C -0.94,0.104 -0.522,0.052 0,0"
             style="fill:#233283;fill-opacity:1;fill-rule:nonzero;stroke:none"
             id="path30"
             inkscape:connector-curvature="0" /></g><g
           id="g32"
           transform="translate(538.9043,731.5464)"><path
             d="m 0,0 c 3.812,0 6.422,2.872 6.422,7.102 0,4.23 -2.61,7.102 -6.422,7.102 -3.812,0 -6.423,-2.872 -6.423,-7.102 C -6.423,2.872 -3.812,0 0,0 m 0,19.32 c 7.362,0 12.375,-4.96 12.375,-12.218 0,-7.259 -5.013,-12.219 -12.375,-12.219 -7.363,0 -12.375,4.96 -12.375,12.219 0,7.258 5.012,12.218 12.375,12.218"
             style="fill:#233283;fill-opacity:1;fill-rule:nonzero;stroke:none"
             id="path34"
             inkscape:connector-curvature="0" /></g><g
           id="g36"
           transform="translate(560.1943,750.397)"><path
             d="m 0,0 0,-1.723 c 1.724,1.41 3.864,2.193 6.371,2.193 5.378,0 8.772,-4.02 8.772,-9.973 l 0,-13.995 -5.744,0 0,13.995 c 0,2.871 -1.827,4.856 -4.543,4.856 -2.087,0 -3.759,-0.731 -4.856,-1.932 l 0,-16.919 -5.743,0 L -5.743,0 0,0 Z"
             style="fill:#233283;fill-opacity:1;fill-rule:nonzero;stroke:none"
             id="path38"
             inkscape:connector-curvature="0" /></g><g
           id="g40"
           transform="translate(588.457,737.8647)"><path
             d="m 0,0 c 2.455,0 4.177,1.775 4.177,4.282 0,2.507 -1.722,4.23 -4.177,4.23 -2.454,0 -4.177,-1.723 -4.177,-4.23 C -4.177,1.775 -2.454,0 0,0 m -0.209,-20.156 c 3.655,0 6.631,1.567 6.631,3.76 0,1.985 -2.297,3.29 -5.743,3.29 -3.707,0 -6.214,-1.515 -6.214,-3.76 0,-1.984 1.984,-3.29 5.326,-3.29 m -6.37,9.504 c -1.828,0.992 -2.611,2.35 -2.611,3.917 0,1.618 0.888,2.923 2.768,3.915 -2.35,1.463 -3.552,4.073 -3.552,6.945 0,5.379 4.074,8.877 9.922,8.877 2.767,0 5.117,-0.783 6.787,-2.141 1.15,1.358 2.612,2.141 4.178,2.141 0.523,0 0.941,0 1.41,-0.105 l 0,-4.542 C 11.957,8.459 11.487,8.512 11.227,8.512 10.443,8.512 9.764,8.094 9.19,7.415 9.556,6.475 9.764,5.431 9.764,4.282 c 0,-5.222 -3.967,-8.772 -9.92,-8.772 -2.351,0 -3.448,-0.888 -3.448,-2.089 0,-1.253 1.621,-2.088 4.283,-2.088 6.997,0 11.696,-3.082 11.696,-7.624 0,-4.856 -5.326,-8.198 -12.531,-8.198 -6.946,0 -11.383,3.133 -11.383,7.623 0,2.977 1.983,5.013 4.96,6.214"
             style="fill:#233283;fill-opacity:1;fill-rule:nonzero;stroke:none"
             id="path42"
             inkscape:connector-curvature="0" /></g><g
           id="g44"
           transform="translate(609.1797,766.0615)"><path
             d="m 0,0 0,-17.388 c 1.723,1.41 3.863,2.193 6.37,2.193 5.378,0 8.773,-4.02 8.773,-9.973 l 0,-13.994 -5.745,0 0,13.994 c 0,2.872 -1.827,4.856 -4.542,4.856 -2.088,0 -3.759,-0.731 -4.856,-1.932 l 0,-16.918 -5.744,0 L -5.744,0 0,0 Z"
             style="fill:#233283;fill-opacity:1;fill-rule:nonzero;stroke:none"
             id="path46"
             inkscape:connector-curvature="0" /></g><g
           id="g48"
           transform="translate(639.7139,731.5464)"><path
             d="m 0,0 c 3.812,0 6.422,2.872 6.422,7.102 0,4.23 -2.61,7.102 -6.422,7.102 -3.813,0 -6.424,-2.872 -6.424,-7.102 C -6.424,2.872 -3.813,0 0,0 m 0,19.32 c 7.362,0 12.374,-4.96 12.374,-12.218 0,-7.259 -5.012,-12.219 -12.374,-12.219 -7.363,0 -12.376,4.96 -12.376,12.219 0,7.258 5.013,12.218 12.376,12.218"
             style="fill:#233283;fill-opacity:1;fill-rule:nonzero;stroke:none"
             id="path50"
             inkscape:connector-curvature="0" /></g><g
           id="g52"
           transform="translate(663.584,726.8994)"><path
             d="m 0,0 c -0.471,-0.208 -1.672,-0.261 -2.402,-0.261 -3.916,0 -6.005,2.559 -6.005,6.318 l 0,33.105 5.743,0 0,-32.948 C -2.664,4.647 -1.567,3.76 0,3.76 L 0,0 Z"
             style="fill:#233283;fill-opacity:1;fill-rule:nonzero;stroke:none"
             id="path54"
             inkscape:connector-curvature="0" /></g><g
           id="g56"
           transform="translate(677.4248,731.5464)"><path
             d="m 0,0 c 2.036,0 3.759,0.68 4.855,1.88 l 0,10.6 C 3.759,13.524 2.036,14.204 0,14.204 -3.864,14.204 -6.579,11.332 -6.579,7.102 -6.579,2.872 -3.864,0 0,0 m 4.855,-4.647 0,1.671 c -1.774,-1.357 -3.967,-2.141 -6.421,-2.141 -6.58,0 -10.966,4.96 -10.966,12.219 0,7.258 4.803,12.218 12.01,12.218 1.984,0 3.811,-0.418 5.377,-1.201 l 0,16.396 5.745,0 0,-39.162 -5.745,0 z"
             style="fill:#233283;fill-opacity:1;fill-rule:nonzero;stroke:none"
             id="path58"
             inkscape:connector-curvature="0" /></g></g></g><g
       id="g60"
       clip-path="url(#clipPath3690)"><g
         id="g62"><g
           id="g68"><g
             id="g70"><path
               d="m 416.682,775.74 -0.021,-32.928 22.819,-11.301 c 0,0 -12.066,43.301 -12.324,44.227 l 0,0 -0.017,0 -4.213,0 0.46,-2.721 0.017,-0.007 -4.521,0 0.01,0.01 -0.15,2.72 -2.06,0 z"
               style="fill:url(#linearGradient72);stroke:none"
               id="path84"
               inkscape:connector-curvature="0" /></g></g></g></g><g
       id="g86"
       clip-path="url(#clipPath3686)"><g
         id="g88"><g
           id="g94"><g
             id="g96"><path
               d="m 414.572,775.74 -0.15,-2.72 0.014,-0.01 -4.517,0 0.017,0.007 0.46,2.721 -4.221,0 c 0,-0.002 -0.001,-0.004 -0.001,-0.006 l 0,0 c 0,0 -0.002,0 -0.002,0 l 0,0 -12.328,-44.221 22.817,11.301 0.021,32.928 -2.11,0 z"
               style="fill:url(#linearGradient98);stroke:none"
               id="path110"
               inkscape:connector-curvature="0" /></g></g></g></g><g
       id="g112"
       clip-path="url(#clipPath3682)"><g
         id="g114"><g
           id="g120"><g
             id="g122"><path
               d="m 393.844,731.511 -1.808,-5.198 c -0.116,-0.335 -0.063,-0.705 0.143,-0.994 l 0,0 c 0.204,-0.288 0.536,-0.46 0.891,-0.46 l 0,0 47.183,0 c 0.355,0 0.687,0.172 0.892,0.46 l 0,0 c 0.205,0.289 0.258,0.659 0.142,0.994 l 0,0 -1.807,5.198 -22.819,11.301 -22.817,-11.301 z"
               style="fill:url(#linearGradient124);stroke:none"
               id="path136"
               inkscape:connector-curvature="0" /></g></g></g></g><g
       id="g138"
       clip-path="url(#clipPath3678)"><g
         id="g140"
         clip-path="url(#clipPath142)"><g
           id="g146"
           transform="translate(489.5503,346.3994)"><path
             d="m 0,0 c -1.566,1.618 -4.438,3.08 -7.049,3.08 -3.76,0 -5.274,-2.819 -5.274,-4.961 0,-7.153 16.918,-4.49 16.918,-16.343 0,-5.848 -4.126,-10.861 -11.801,-10.861 -4.752,0 -8.981,1.932 -12.271,5.326 l 3.655,3.655 c 2.089,-2.141 5.117,-3.655 8.042,-3.655 4.281,0 6.161,3.081 6.161,5.431 0,6.945 -16.866,4.072 -16.866,16.291 0,5.64 3.655,10.443 10.757,10.443 4.333,0 8.511,-1.775 11.436,-4.752 L 0,0 Z"
             style="fill:#363636;fill-opacity:1;fill-rule:nonzero;stroke:none"
             id="path148"
             inkscape:connector-curvature="0" /></g><g
           id="g150"
           transform="translate(495.563,341.2822)"><path
             d="m 0,0 2.767,0 0,5.222 5.953,0 0,-5.222 5.274,0 0,-4.49 -5.274,0 0,-10.863 c 0,-2.245 1.357,-3.758 3.499,-3.758 0.626,0 1.252,0.103 1.775,0.417 l 0,-4.751 c -0.888,-0.418 -1.932,-0.523 -2.872,-0.523 -5.17,0 -8.355,3.342 -8.355,8.615 l 0,10.863 L 0,-4.49 0,0 Z"
             style="fill:#363636;fill-opacity:1;fill-rule:nonzero;stroke:none"
             id="path152"
             inkscape:connector-curvature="0" /></g><g
           id="g154"
           transform="translate(525.3242,341.543)"><path
             d="m 0,0 0,-5.013 c -0.575,0.208 -1.253,0.262 -1.88,0.262 -2.245,0 -4.125,-1.202 -5.273,-2.977 l 0,-16.031 -5.744,0 0,23.498 5.744,0 0,-2.402 c 1.618,1.724 3.55,2.767 5.691,2.767 C -0.94,0.104 -0.522,0.053 0,0"
             style="fill:#363636;fill-opacity:1;fill-rule:nonzero;stroke:none"
             id="path156"
             inkscape:connector-curvature="0" /></g><g
           id="g158"
           transform="translate(538.9043,322.4316)"><path
             d="m 0,0 c 3.812,0 6.422,2.872 6.422,7.102 0,4.229 -2.61,7.101 -6.422,7.101 -3.812,0 -6.423,-2.872 -6.423,-7.101 C -6.423,2.872 -3.812,0 0,0 m 0,19.32 c 7.362,0 12.375,-4.96 12.375,-12.218 0,-7.259 -5.013,-12.219 -12.375,-12.219 -7.363,0 -12.375,4.96 -12.375,12.219 0,7.258 5.012,12.218 12.375,12.218"
             style="fill:#363636;fill-opacity:1;fill-rule:nonzero;stroke:none"
             id="path160"
             inkscape:connector-curvature="0" /></g><g
           id="g162"
           transform="translate(560.1943,341.2822)"><path
             d="m 0,0 0,-1.724 c 1.724,1.411 3.864,2.194 6.371,2.194 5.378,0 8.772,-4.021 8.772,-9.974 l 0,-13.994 -5.744,0 0,13.994 c 0,2.872 -1.827,4.857 -4.543,4.857 -2.087,0 -3.759,-0.732 -4.856,-1.932 l 0,-16.919 -5.743,0 L -5.743,0 0,0 Z"
             style="fill:#363636;fill-opacity:1;fill-rule:nonzero;stroke:none"
             id="path164"
             inkscape:connector-curvature="0" /></g><g
           id="g166"
           transform="translate(588.457,328.75)"><path
             d="M 0,0 C 2.455,0 4.177,1.775 4.177,4.281 4.177,6.788 2.455,8.512 0,8.512 -2.454,8.512 -4.177,6.788 -4.177,4.281 -4.177,1.775 -2.454,0 0,0 m -0.209,-20.156 c 3.655,0 6.631,1.567 6.631,3.76 0,1.985 -2.297,3.29 -5.743,3.29 -3.707,0 -6.214,-1.515 -6.214,-3.76 0,-1.984 1.984,-3.29 5.326,-3.29 m -6.37,9.504 c -1.828,0.992 -2.611,2.349 -2.611,3.917 0,1.618 0.888,2.923 2.768,3.915 -2.35,1.463 -3.552,4.073 -3.552,6.945 0,5.378 4.074,8.877 9.922,8.877 2.767,0 5.117,-0.783 6.787,-2.142 1.15,1.359 2.612,2.142 4.178,2.142 0.523,0 0.941,0 1.41,-0.105 l 0,-4.543 C 11.957,8.459 11.487,8.512 11.227,8.512 10.443,8.512 9.764,8.094 9.19,7.415 9.556,6.475 9.764,5.431 9.764,4.281 c 0,-5.221 -3.967,-8.771 -9.92,-8.771 -2.351,0 -3.448,-0.889 -3.448,-2.089 0,-1.253 1.621,-2.089 4.283,-2.089 6.997,0 11.696,-3.081 11.696,-7.623 0,-4.856 -5.326,-8.198 -12.531,-8.198 -6.946,0 -11.383,3.133 -11.383,7.623 0,2.976 1.983,5.013 4.96,6.214"
             style="fill:#363636;fill-opacity:1;fill-rule:nonzero;stroke:none"
             id="path168"
             inkscape:connector-curvature="0" /></g><g
           id="g170"
           transform="translate(609.1797,356.9463)"><path
             d="m 0,0 0,-17.388 c 1.723,1.41 3.863,2.194 6.37,2.194 5.378,0 8.773,-4.021 8.773,-9.974 l 0,-13.994 -5.745,0 0,13.994 c 0,2.872 -1.827,4.856 -4.542,4.856 -2.088,0 -3.759,-0.731 -4.856,-1.931 l 0,-16.919 -5.744,0 L -5.744,0 0,0 Z"
             style="fill:#363636;fill-opacity:1;fill-rule:nonzero;stroke:none"
             id="path172"
             inkscape:connector-curvature="0" /></g><g
           id="g174"
           transform="translate(639.7139,322.4316)"><path
             d="m 0,0 c 3.812,0 6.422,2.872 6.422,7.102 0,4.229 -2.61,7.101 -6.422,7.101 -3.813,0 -6.424,-2.872 -6.424,-7.101 C -6.424,2.872 -3.813,0 0,0 m 0,19.32 c 7.362,0 12.374,-4.96 12.374,-12.218 0,-7.259 -5.012,-12.219 -12.374,-12.219 -7.363,0 -12.376,4.96 -12.376,12.219 0,7.258 5.013,12.218 12.376,12.218"
             style="fill:#363636;fill-opacity:1;fill-rule:nonzero;stroke:none"
             id="path176"
             inkscape:connector-curvature="0" /></g><g
           id="g178"
           transform="translate(663.584,317.7842)"><path
             d="m 0,0 c -0.471,-0.208 -1.672,-0.261 -2.402,-0.261 -3.916,0 -6.005,2.559 -6.005,6.319 l 0,33.104 5.743,0 0,-32.948 C -2.664,4.647 -1.567,3.76 0,3.76 L 0,0 Z"
             style="fill:#363636;fill-opacity:1;fill-rule:nonzero;stroke:none"
             id="path180"
             inkscape:connector-curvature="0" /></g><g
           id="g182"
           transform="translate(677.4248,322.4316)"><path
             d="m 0,0 c 2.036,0 3.759,0.68 4.855,1.88 l 0,10.599 C 3.759,13.523 2.036,14.203 0,14.203 -3.864,14.203 -6.579,11.331 -6.579,7.102 -6.579,2.872 -3.864,0 0,0 m 4.855,-4.647 0,1.671 c -1.774,-1.358 -3.967,-2.141 -6.421,-2.141 -6.58,0 -10.966,4.96 -10.966,12.219 0,7.258 4.803,12.218 12.01,12.218 1.984,0 3.811,-0.418 5.377,-1.201 l 0,16.396 5.745,0 0,-39.162 -5.745,0 z"
             style="fill:#363636;fill-opacity:1;fill-rule:nonzero;stroke:none"
             id="path184"
             inkscape:connector-curvature="0" /></g></g></g><g
       id="g186"
       clip-path="url(#clipPath3674)"><g
         id="g188"><g
           id="g194"><g
             id="g196"><path
               d="m 416.682,366.625 -0.021,-32.928 22.819,-11.302 c 0,0 -12.066,43.302 -12.324,44.228 l 0,0 -0.017,0 -4.213,0 0.46,-2.721 0.017,-0.007 -4.521,0 0.01,0.009 -0.15,2.721 -2.06,0 z"
               style="fill:url(#linearGradient198);stroke:none"
               id="path214"
               inkscape:connector-curvature="0" /></g></g></g></g><g
       id="g216"
       clip-path="url(#clipPath3670)"><g
         id="g218"><g
           id="g224"><g
             id="g226"><path
               d="m 414.572,366.625 -0.15,-2.721 0.014,-0.009 -4.517,0 0.017,0.007 0.46,2.721 -4.221,0 -0.001,-0.006 c 0,0 -0.002,0 -0.002,-0.001 l 0,0 -12.328,-44.221 22.817,11.302 0.021,32.928 -2.11,0 z"
               style="fill:url(#linearGradient228);stroke:none"
               id="path240"
               inkscape:connector-curvature="0" /></g></g></g></g><g
       id="g242"
       clip-path="url(#clipPath3666)"><g
         id="g244"><g
           id="g250"><g
             id="g252"><path
               d="m 393.844,322.395 -1.808,-5.198 c -0.116,-0.334 -0.063,-0.704 0.143,-0.993 l 0,0 c 0.204,-0.288 0.536,-0.46 0.891,-0.46 l 0,0 47.183,0 c 0.355,0 0.687,0.172 0.892,0.46 l 0,0 c 0.205,0.289 0.258,0.659 0.142,0.993 l 0,0 -1.807,5.198 -22.819,11.302 -22.817,-11.302 z"
               style="fill:url(#linearGradient254);stroke:none"
               id="path268"
               inkscape:connector-curvature="0" /></g></g></g></g><g
       id="g270"
       clip-path="url(#clipPath3662)"><g
         id="g272"
         clip-path="url(#clipPath274)"><g
           id="g278"
           transform="translate(489.5503,550.7251)"><path
             d="m 0,0 c -1.566,1.619 -4.438,3.081 -7.049,3.081 -3.76,0 -5.274,-2.82 -5.274,-4.961 0,-7.154 16.918,-4.491 16.918,-16.343 0,-5.849 -4.126,-10.861 -11.801,-10.861 -4.752,0 -8.981,1.931 -12.271,5.326 l 3.655,3.655 c 2.089,-2.142 5.117,-3.655 8.042,-3.655 4.281,0 6.161,3.081 6.161,5.43 0,6.945 -16.866,4.073 -16.866,16.291 0,5.64 3.655,10.444 10.757,10.444 4.333,0 8.511,-1.775 11.436,-4.752 L 0,0 Z"
             style="fill:#000000;fill-opacity:1;fill-rule:nonzero;stroke:none"
             id="path280"
             inkscape:connector-curvature="0" /></g><g
           id="g282"
           transform="translate(495.563,545.6079)"><path
             d="m 0,0 2.767,0 0,5.222 5.953,0 0,-5.222 5.274,0 0,-4.49 -5.274,0 0,-10.862 c 0,-2.245 1.357,-3.759 3.499,-3.759 0.626,0 1.252,0.104 1.775,0.417 l 0,-4.751 c -0.888,-0.418 -1.932,-0.522 -2.872,-0.522 -5.17,0 -8.355,3.342 -8.355,8.615 l 0,10.862 L 0,-4.49 0,0 Z"
             style="fill:#000000;fill-opacity:1;fill-rule:nonzero;stroke:none"
             id="path284"
             inkscape:connector-curvature="0" /></g><g
           id="g286"
           transform="translate(525.3242,545.8696)"><path
             d="m 0,0 0,-5.013 c -0.575,0.208 -1.253,0.261 -1.88,0.261 -2.245,0 -4.125,-1.201 -5.273,-2.977 l 0,-16.03 -5.744,0 0,23.497 5.744,0 0,-2.402 c 1.618,1.724 3.55,2.768 5.691,2.768 C -0.94,0.104 -0.522,0.052 0,0"
             style="fill:#000000;fill-opacity:1;fill-rule:nonzero;stroke:none"
             id="path288"
             inkscape:connector-curvature="0" /></g><g
           id="g290"
           transform="translate(538.9043,526.7578)"><path
             d="m 0,0 c 3.812,0 6.422,2.872 6.422,7.102 0,4.229 -2.61,7.101 -6.422,7.101 -3.812,0 -6.423,-2.872 -6.423,-7.101 C -6.423,2.872 -3.812,0 0,0 m 0,19.32 c 7.362,0 12.375,-4.96 12.375,-12.218 0,-7.259 -5.013,-12.219 -12.375,-12.219 -7.363,0 -12.375,4.96 -12.375,12.219 0,7.258 5.012,12.218 12.375,12.218"
             style="fill:#000000;fill-opacity:1;fill-rule:nonzero;stroke:none"
             id="path292"
             inkscape:connector-curvature="0" /></g><g
           id="g294"
           transform="translate(560.1943,545.6079)"><path
             d="m 0,0 0,-1.723 c 1.724,1.41 3.864,2.193 6.371,2.193 5.378,0 8.772,-4.02 8.772,-9.973 l 0,-13.995 -5.744,0 0,13.995 c 0,2.872 -1.827,4.856 -4.543,4.856 -2.087,0 -3.759,-0.731 -4.856,-1.932 l 0,-16.919 -5.743,0 L -5.743,0 0,0 Z"
             style="fill:#000000;fill-opacity:1;fill-rule:nonzero;stroke:none"
             id="path296"
             inkscape:connector-curvature="0" /></g><g
           id="g298"
           transform="translate(588.457,533.0762)"><path
             d="m 0,0 c 2.455,0 4.177,1.775 4.177,4.281 0,2.507 -1.722,4.23 -4.177,4.23 -2.454,0 -4.177,-1.723 -4.177,-4.23 C -4.177,1.775 -2.454,0 0,0 m -0.209,-20.156 c 3.655,0 6.631,1.567 6.631,3.76 0,1.985 -2.297,3.29 -5.743,3.29 -3.707,0 -6.214,-1.515 -6.214,-3.76 0,-1.984 1.984,-3.29 5.326,-3.29 m -6.37,9.504 c -1.828,0.992 -2.611,2.349 -2.611,3.917 0,1.618 0.888,2.922 2.768,3.915 -2.35,1.463 -3.552,4.073 -3.552,6.945 0,5.378 4.074,8.877 9.922,8.877 2.767,0 5.117,-0.783 6.787,-2.142 1.15,1.359 2.612,2.142 4.178,2.142 0.523,0 0.941,0 1.41,-0.105 l 0,-4.542 C 11.957,8.458 11.487,8.511 11.227,8.511 10.443,8.511 9.764,8.093 9.19,7.415 9.556,6.475 9.764,5.43 9.764,4.281 c 0,-5.221 -3.967,-8.771 -9.92,-8.771 -2.351,0 -3.448,-0.889 -3.448,-2.089 0,-1.253 1.621,-2.089 4.283,-2.089 6.997,0 11.696,-3.081 11.696,-7.623 0,-4.856 -5.326,-8.198 -12.531,-8.198 -6.946,0 -11.383,3.133 -11.383,7.623 0,2.976 1.983,5.013 4.96,6.214"
             style="fill:#000000;fill-opacity:1;fill-rule:nonzero;stroke:none"
             id="path300"
             inkscape:connector-curvature="0" /></g><g
           id="g302"
           transform="translate(609.1797,561.2725)"><path
             d="m 0,0 0,-17.388 c 1.723,1.41 3.863,2.194 6.37,2.194 5.378,0 8.773,-4.021 8.773,-9.974 l 0,-13.994 -5.745,0 0,13.994 c 0,2.872 -1.827,4.856 -4.542,4.856 -2.088,0 -3.759,-0.731 -4.856,-1.931 l 0,-16.919 -5.744,0 L -5.744,0 0,0 Z"
             style="fill:#000000;fill-opacity:1;fill-rule:nonzero;stroke:none"
             id="path304"
             inkscape:connector-curvature="0" /></g><g
           id="g306"
           transform="translate(639.7139,526.7578)"><path
             d="m 0,0 c 3.812,0 6.422,2.872 6.422,7.102 0,4.229 -2.61,7.101 -6.422,7.101 -3.813,0 -6.424,-2.872 -6.424,-7.101 C -6.424,2.872 -3.813,0 0,0 m 0,19.32 c 7.362,0 12.374,-4.96 12.374,-12.218 0,-7.259 -5.012,-12.219 -12.374,-12.219 -7.363,0 -12.376,4.96 -12.376,12.219 0,7.258 5.013,12.218 12.376,12.218"
             style="fill:#000000;fill-opacity:1;fill-rule:nonzero;stroke:none"
             id="path308"
             inkscape:connector-curvature="0" /></g><g
           id="g310"
           transform="translate(663.584,522.1104)"><path
             d="m 0,0 c -0.471,-0.208 -1.672,-0.261 -2.402,-0.261 -3.916,0 -6.005,2.559 -6.005,6.319 l 0,33.104 5.743,0 0,-32.948 C -2.664,4.647 -1.567,3.76 0,3.76 L 0,0 Z"
             style="fill:#000000;fill-opacity:1;fill-rule:nonzero;stroke:none"
             id="path312"
             inkscape:connector-curvature="0" /></g><g
           id="g314"
           transform="translate(677.4248,526.7578)"><path
             d="m 0,0 c 2.036,0 3.759,0.679 4.855,1.88 l 0,10.6 C 3.759,13.524 2.036,14.203 0,14.203 -3.864,14.203 -6.579,11.331 -6.579,7.102 -6.579,2.872 -3.864,0 0,0 m 4.855,-4.647 0,1.671 c -1.774,-1.358 -3.967,-2.141 -6.421,-2.141 -6.58,0 -10.966,4.96 -10.966,12.219 0,7.258 4.803,12.218 12.01,12.218 1.984,0 3.811,-0.418 5.377,-1.201 l 0,16.396 5.745,0 0,-39.162 -5.745,0 z"
             style="fill:#000000;fill-opacity:1;fill-rule:nonzero;stroke:none"
             id="path316"
             inkscape:connector-curvature="0" /></g><g
           id="g318"
           transform="translate(441.2871,521.9863)"><path
             d="M 0,0 -1.807,5.198 -24.625,16.5 -47.444,5.198 -49.251,0 c -0.116,-0.335 -0.063,-0.705 0.142,-0.993 0.205,-0.289 0.537,-0.46 0.892,-0.46 l 47.183,0 c 0.355,0 0.687,0.171 0.892,0.46 C 0.063,-0.705 0.116,-0.335 0,0"
             style="fill:#000000;fill-opacity:1;fill-rule:nonzero;stroke:none"
             id="path320"
             inkscape:connector-curvature="0" /></g><g
           id="g322"
           transform="translate(416.6821,571.4136)"><path
             d="M 0,0 -0.021,0 -0.01,-0.25 0,0 Z"
             style="fill:#000000;fill-opacity:1;fill-rule:nonzero;stroke:none"
             id="path324"
             inkscape:connector-curvature="0" /></g><g
           id="g326"
           transform="translate(417.9707,540.0698)"><path
             d="m 0,0 20.788,-10.295 -11.603,41.637 -0.017,0 -4.213,0 0.46,-2.72 -4.504,-0.008 -0.14,2.73 -2.06,0 0,-0.502 L 0,0 Z"
             style="fill:#000000;fill-opacity:1;fill-rule:nonzero;stroke:none"
             id="path328"
             inkscape:connector-curvature="0" /></g><g
           id="g330"
           transform="translate(416.6616,570.9121)"><path
             d="m 0,0 0,0.501 -2.089,0 -0.137,-2.729 -4.5,0.007 0.46,2.721 -4.22,0 c 0,-0.002 -10e-4,-0.004 -10e-4,-0.006 -10e-4,0 -0.003,0 -0.003,-0.001 L -22.097,-41.138 -1.288,-30.832 0,0 Z"
             style="fill:#000000;fill-opacity:1;fill-rule:nonzero;stroke:none"
             id="path332"
             inkscape:connector-curvature="0" /></g></g></g></g></svg>