<svg id="Layer_2" data-name="Layer 2" xmlns="http://www.w3.org/2000/svg" xmlns:xlink="http://www.w3.org/1999/xlink" viewBox="0 0 799 799"><defs><style>.cls-1{fill:#162ee4;}.cls-2{fill:url(#radial-gradient);}.cls-3,.cls-4,.cls-5{fill-rule:evenodd;}.cls-3{fill:url(#linear-gradient);}.cls-4{fill:url(#linear-gradient-2);}.cls-5{fill:#1937e5;}.cls-6{fill:#142ce4;}</style><radialGradient id="radial-gradient" cx="399.5" cy="399.5" r="384.89" gradientUnits="userSpaceOnUse"><stop offset="0.26" stop-color="#fff"/><stop offset="0.43" stop-color="#f6fbff"/><stop offset="0.7" stop-color="#dff2ff"/><stop offset="1" stop-color="#bde4ff"/></radialGradient><linearGradient id="linear-gradient" x1="1031.71" y1="410.56" x2="1192.18" y2="436.97" gradientUnits="userSpaceOnUse"><stop offset="0" stop-color="#a4b1da"/><stop offset="0.18" stop-color="#92a1db"/><stop offset="0.53" stop-color="#6277df"/><stop offset="1" stop-color="#1937e5"/></linearGradient><linearGradient id="linear-gradient-2" x1="727.98" y1="501.97" x2="900.96" y2="550.04" gradientUnits="userSpaceOnUse"><stop offset="0" stop-color="#1937e5"/><stop offset="0.05" stop-color="#2945e5"/><stop offset="0.2" stop-color="#536ae3"/><stop offset="0.35" stop-color="#7588e3"/><stop offset="0.51" stop-color="#909fe2"/><stop offset="0.67" stop-color="#a3b0e1"/><stop offset="0.83" stop-color="#aebae1"/><stop offset="1" stop-color="#b2bde1"/></linearGradient></defs><title>mobius symbol and logotype</title><circle class="cls-1" cx="399.5" cy="399.5" r="399.5"/><circle class="cls-2" cx="399.5" cy="399.5" r="384.89"/><path class="cls-3" d="M980.87,440.55a233.74,233.74,0,0,1,38.48-36.75c21.39-16.16,49.87-31.33,81.27-31.33,27.25,0,51.83,8.11,69.59,23.81,16.49,14.59,29.44,44.72,28.38,62.91a77.23,77.23,0,0,1-6.24,16.68c-1.16,2.23-2.23,4.08-3,5.37-.39.65-.7,1.15-.92,1.49l-.34.52h0l-.7,1.13a66.94,66.94,0,0,0-7.18-10.4c-10.67-12.75-25.1-21.06-36.87-26.21a122.42,122.42,0,0,0-20.89-7.12l-.12.58.15-.57a106.54,106.54,0,0,0-28.92-3.87c-28.88,0-62.81,7.09-88,20.62C994.74,450.08,989.94,446.81,980.87,440.55Z" transform="translate(-560.5 -140.5)"/><path class="cls-4" d="M940.12,510.89c-3.47,4.36-25.13,23.89-45.64,39.7-21,16.23-49.07,31.47-80,31.47-26.82,0-51-10-68.5-25.72-16.23-14.65-27.4-34.08-25.85-65.18,1.42-6.09,1.8-8.5,4.07-13,1.14-2.24,4.19-7.42,4.19-7.42h0c.23-.38,5.35-5,5.21-5.45,1.12,3.37,3,10.29,5.62,13.49,10.5,12.8,21.63,22.43,33.21,27.6A118.76,118.76,0,0,0,793,513.54l.12-.58-.15.57a102.86,102.86,0,0,0,28.46,3.89c28.42,0,61.33-12,86.07-25.63C918.21,499.18,931.28,504.35,940.12,510.89Z" transform="translate(-560.5 -140.5)"/><path class="cls-5" d="M1198.59,454.7c0,99.54-47.4,123.18-85.11,132-33.71,7.87-94.4-15.73-151.71-55.06-103.14-70.78-188-153-241.91-33.08C732.64,315.38,851.25,350.85,950.47,417,1051.67,484.41,1154.22,582.82,1198.59,454.7Z" transform="translate(-560.5 -140.5)"/><path class="cls-6" d="M729.41,441.78s-10.11,36-9,58.44c0,0,10.11-27,14.61-29.22C735,471,730.54,455.26,729.41,441.78Z" transform="translate(-560.5 -140.5)"/><path class="cls-6" d="M1186.22,482.8a50.4,50.4,0,0,1,4.88,28.84,229.2,229.2,0,0,0,5.8-29.4,226.71,226.71,0,0,0,1.69-26.41C1195.57,465.23,1186.22,482.8,1186.22,482.8Z" transform="translate(-560.5 -140.5)"/><path class="cls-1" d="M720.39,630.91h7.2l35.5,67.16,35.26-67.16h7v85.16h-4.8l-.24-78L764,706.95h-2.16L725.43,638.1v78h-5Z" transform="translate(-560.5 -140.5)"/><path class="cls-1" d="M891.42,636.18a43.6,43.6,0,0,1,16.07,15.59,41.74,41.74,0,0,1,6,21.59,40.17,40.17,0,0,1-6,21.59c-3.84,6.72-9.36,11.75-16.07,15.83a45.18,45.18,0,0,1-44.14,0A42.44,42.44,0,0,1,831.21,695a43.06,43.06,0,0,1-6-21.59,40.76,40.76,0,0,1,6-21.59,44.88,44.88,0,0,1,60.21-15.59Zm-41.5,4.32a35.88,35.88,0,0,0-14.15,13.91,35.34,35.34,0,0,0-5.28,19,36.16,36.16,0,0,0,5.28,19.19,39.5,39.5,0,0,0,33.58,19.19,37,37,0,0,0,19.43-5.28,37.54,37.54,0,0,0,14.15-13.91,35.57,35.57,0,0,0,5.28-19.19,34.76,34.76,0,0,0-5.28-19,41.36,41.36,0,0,0-14.15-13.91,39.12,39.12,0,0,0-19.43-5A34.69,34.69,0,0,0,849.92,640.5Z" transform="translate(-560.5 -140.5)"/><path class="cls-1" d="M988.09,636.42c4.56,3.6,7,8.88,7,15.59q0,7.92-4.32,13t-12.23,6.48c6.48.72,11.75,3.12,15.35,7A20.5,20.5,0,0,1,999.37,693c0,7.2-2.64,13-8.16,16.79-5.28,4.08-13,6-22.55,6h-35V630.91h34.78C976.82,630.91,983.29,632.83,988.09,636.42Zm-3.84,28.78c3.84-2.88,5.76-7.2,5.76-12.47s-1.92-9.36-5.76-12.23-9.12-4.32-15.83-4.32H938.68v33.58h29.5C975.14,669.53,980.42,668.09,984.25,665.21Zm3.12,41c4.56-3.12,6.72-7.68,6.72-13.67,0-5.76-2.16-10.31-6.72-13.43s-10.79-4.8-19-4.8H938.68v36.46h29.5C976.58,711,982.81,709.35,987.37,706.23Z" transform="translate(-560.5 -140.5)"/><path class="cls-1" d="M1021.91,630.91h5v85.16h-5Z" transform="translate(-560.5 -140.5)"/><path class="cls-1" d="M1067,703.59c5,5.28,12.47,7.92,21.59,7.92s16.31-2.64,21.59-7.92c5-5.28,7.68-12.71,7.68-22.07V630.91h5v50.61c0,11-3.12,19.67-9.12,25.67-6,6.24-14.39,9.12-25.43,9.12-10.79,0-19.43-3.12-25.43-9.12-6-6.24-9.12-14.63-9.12-25.67V630.91h5v50.61C1059.33,691.12,1062,698.55,1067,703.59Z" transform="translate(-560.5 -140.5)"/><path class="cls-1" d="M1184.31,637.14a51.45,51.45,0,0,0-11.75-1.68c-6.72,0-12.23,1.44-16.31,4.08a12.14,12.14,0,0,0-6,10.79,14.44,14.44,0,0,0,3.12,9.59,23.09,23.09,0,0,0,7.68,5.76,112.5,112.5,0,0,0,12.47,4.56,98.39,98.39,0,0,1,13.91,5,26.4,26.4,0,0,1,9.12,7.2q3.6,4.68,3.6,12.23a19.31,19.31,0,0,1-3.6,11.51,22.55,22.55,0,0,1-10.31,7.68c-4.56,1.92-9.59,2.64-15.59,2.64a45.32,45.32,0,0,1-16.55-3.36,37,37,0,0,1-13.67-9.12l2.64-4.56a37.27,37.27,0,0,0,12.71,8.64,37.92,37.92,0,0,0,15.11,3.12c7.44,0,13.19-1.44,17.51-4.56a14.43,14.43,0,0,0,6.48-12.23c0-4.08-1-7.2-3.12-9.59a24.07,24.07,0,0,0-7.92-5.76,81.27,81.27,0,0,0-12.47-4.32,88.36,88.36,0,0,1-13.91-5,24.9,24.9,0,0,1-8.88-7c-2.4-3.12-3.6-7.2-3.6-12a18.59,18.59,0,0,1,3.36-10.79,22,22,0,0,1,9.83-7.2,39.86,39.86,0,0,1,14.63-2.4,48.39,48.39,0,0,1,13,1.92,37.42,37.42,0,0,1,11.27,5l-2.4,4.56A29.17,29.17,0,0,0,1184.31,637.14Z" transform="translate(-560.5 -140.5)"/></svg>